<?xml version="1.0" encoding="utf-8"?>
<!-- Generator: Adobe Illustrator 25.0.1, SVG Export Plug-In . SVG Version: 6.00 Build 0)  -->
<svg version="1.0" id="Layer_1" xmlns="http://www.w3.org/2000/svg" xmlns:xlink="http://www.w3.org/1999/xlink" x="0px" y="0px"
	 viewBox="0 0 796 562" style="enable-background:new 0 0 796 562;" xml:space="preserve">
<style type="text/css">
	.st0{fill:#01147B;}
	.st1{fill:url(#SVGID_1_);}
	.st2{fill:none;}
</style>
<path class="st0" d="M515.6,249.6c0.2,2.7-0.3,5.3-1.6,7.7c-2.1,3.8-4.2,7.7-6.4,11.5c-2,3.4-3.2,7.2-3.7,11.1
	c-0.3,1.1-0.1,2.3,0.3,3.4c2.9-4.2,5.7-8.3,8.8-12.2c3.5-4.6,7.6-8.8,12-12.6c2.4-2.1,5.2-3.7,8.2-4.6c3.9-1.3,8.2,0.3,10.1,3.9
	c2,3.3,2.6,7,2.7,10.7c0.5,13.7-9.2,28.8-21.9,34.2c-3.7,1.6-7.8,2.1-11.7,1.5c-1.3-0.2-1.7,0.1-2.1,1.2
	c-5.5,13.3-9.3,27.4-11.2,41.7c-0.5,3.6-2.3,4.5-5.3,2.4c-4.6-3.2-7.4-8.4-7.5-14c-0.3-7.6,1.7-14.9,4-22.1
	c1.9-5.8,4.1-11.4,6.7-16.9c0.5-0.7,0.6-1.6,0.2-2.3c-3.6-6.8-3.4-13.8-1.2-20.8c3-9.3,8.5-17.6,15.9-24.1c0.4-0.3,0.8-0.6,1.3-0.9
	C514.6,247.8,515.5,248,515.6,249.6z M202.9,191.1c23.3,0.6,44.8,7.9,65.2,18.5c13.7,7,26.1,16.3,36.6,27.6c5.5,5.9,10,12.6,13.4,20
	c5.5,12.4,4,24.1-3.6,35.2c-6.2,9-15.1,14.1-25.1,17.4c-15.9,5.3-32,5.6-48.3,1.8c-1.5-0.4-1.8,0-1.9,1.4c-0.3,4.5-1.5,5.8-5.1,6.2
	c-4.4,0.4-7-1.2-8-5.2c-0.5-2.1-0.9-4.3-1-6.5c0-1.2-0.8-2.3-1.9-2.7c-10.6-4.9-20.1-11.7-28.1-20.2c-1.6-1.7-3.1-3.7-4.3-5.7
	c-3.2-5.4-2.2-10.3,2.7-14.2c3.2-2.5,6.8-4.5,10.6-5.8c6.2-2.5,12.6-4.2,19.2-5.2c1.6-0.2,2.2-0.8,2.2-2.4c0-7.4,0.8-14.7,2.3-21.9
	c0.2-0.9,0.5-1.9,0.8-2.8c0.7-1.9,1.9-2.2,3.6-1c1.6,1.3,2.8,3,3.4,5c2.4,6,2.7,12.3,3,18.6c0.1,2.7,0.1,2.7,2.7,2.6
	c10.7-0.3,21.4,1.4,31.5,5c4,1.3,7.5,3.8,10.1,7.1c3.4,4.5,3.4,9.4-0.1,13.6c-4.3,5.1-8.9,5.2-13.9,3.4c-0.5-0.2-1.1-0.5-1.1-1.2
	c-0.1-0.7,0.5-1,1-1.3c1.5-0.7,2.9-1.6,4.2-2.7c2.1-2,1.9-3.9-0.8-5.1c-3.6-1.5-7.4-2.6-11.3-3.3c-6.7-1.4-13.5-2.3-20.3-2.6
	c-1.4,0-1.9,0.2-1.8,1.7c0.3,10.8,0.5,21.6,0.7,32.3c0,0.8-0.1,1.5,1.2,1.7c16.1,2.6,31.9,2.4,47.1-4c6.1-2.6,11.5-6.2,15-12
	c4.8-8.1,4.6-16.4,0.9-24.8c-5.2-11.6-13.7-20.6-23.7-28.1c-19.8-14.9-42.2-23.9-66.5-28.1c-11.2-2.1-22.6-2.5-33.9-1.2
	c-3,0.3-6,1.1-8.7,2.3c1.2,0.5,2.4,0.7,3.7,0.8c1,0,2,0.3,2.9,0.9c0.8,0.4,1.2,1.2,1.2,2.1c-0.2,0.8-0.8,1.3-1.6,1.4
	c-3.3,0.8-6.8,0.5-9.8-0.9c-1.9-0.9-2-2.6-1.5-4.3c1.4-5,5.3-8.8,10.3-10.1C184.7,192.1,193.8,190.9,202.9,191.1z M485.7,249.9
	c3.2-0.1,6.2,1.4,7.9,4c0.8,1.1,1.6,2.3,2.2,3.6c1.3,2.5,0.6,3.8-2,4.3c-4.6,0.8-9.3,1.3-14,1.6c-2.4,0.2-4.9,0.3-7.3,0.4
	c-0.9,0-1.4,0.3-1.6,1.2c-0.4,1.4-0.8,2.7-1.3,4c-0.4,1.2-0.2,1.5,1.1,1.4c4.1-0.3,8.3-0.3,12.4,0c2.2,0.2,2.9,0.8,2.9,3
	c-0.1,5.8-0.1,6-5.4,6.3c-4.5,0.2-9,0.5-13.5,0.6c-1.1-0.2-2.1,0.6-2.3,1.7c0,0.1,0,0.1,0,0.2c-0.5,2.3-1.3,4.6-2,6.9
	c-0.5,1.6,0,1.9,1.5,1.5c6.1-1.3,12.3-2.4,18.5-3.1c1.8-0.3,3.7,0.4,4.8,1.8c2.1,2.4,2.1,4.8-0.2,6.9c-4.6,4.1-10.1,7.3-15.9,9.3
	c-2.1,0.7-4.2,1.3-6.3,1.7c-8.3,2-16.2-6.2-15.1-14.7c0.4-3.3,1.1-6.6,2.3-9.8c0.6-1.3,0.7-2.7,0.1-4.1c-0.4-0.9-0.6-1.8-0.6-2.8
	c-0.3-3,0.4-4,3.5-4.4c1.1,0,2-0.8,2.4-1.8c0.9-2.1,2-4.2,3-6.3c0-0.2,0.1-0.3,0.1-0.5c-3.5-0.3-6.4-1.6-8.3-4.8
	c-1.6-2.7-1.3-3.8,1.8-4.5c6.4-1.5,12.9-2.5,19.5-3.1C477.4,250.1,481.5,250,485.7,249.9z M596.3,236.9c1.6,8.6,2.7,17.4,3.2,26.1
	c0.1,1.6,0.5,2,2.1,2c8.5-0.1,16.9,0,25.4-0.1c1.4-0.1,2.7,0.4,3.6,1.5v7.8c-0.8,1.1-2.2,1.6-3.5,1.5c-8.4,0-16.8,0-25.2-0.1
	c-1.5,0-1.8,0.4-1.8,1.8c0.1,8.2-0.2,16.4-1,24.6c-0.3,3-0.8,3.5-3.8,3.5c-1.3,0-2.7,0-4.1,0c-2.2,0-3-0.9-2.8-3.1
	c0.9-8.3,1.2-16.6,1.2-24.9c0-1.6-0.5-1.9-1.9-1.9c-8.2,0.1-16.4,0-24.6,0c-3,0-3.6-0.6-3.6-3.6c0-1.3,0-2.6,0-3.9
	c0-2.4,0.7-3.1,3.1-3.1c8.1,0,16.3,0,24.4,0c1.8,0,2.3-0.4,2.1-2.2c-0.6-8.3-1.7-16.6-3.3-24.8c-0.5-2.8,0-3.6,2.8-3.6
	c1.5,0,3,0.1,4.4,0c1.5-0.3,2.9,0.7,3.2,2.2C596.3,236.7,596.3,236.8,596.3,236.9L596.3,236.9z M333.6,251.9c2.2,1.1,3.1,3,3.6,5.2
	c1.3,5.4,1.5,11,1.9,16.5c0.3,4.1,0.4,8.1,0.6,12.2c0.1,4.6,0.5,9.1,0.2,13.8c-0.2,3.5-1.5,5.3-3.9,5.6c-4.2,0.6-7-0.9-8.1-4.2
	c-0.7-2.4-1-4.8-1-7.3c-0.5-11.8-0.4-23.6,1.8-35.3c0.3-1.9,0.9-3.8,1.7-5.5c0.5-1.1,1.7-1.7,2.9-1.2
	C333.3,251.7,333.5,251.8,333.6,251.9L333.6,251.9z M377.3,249.3c6,0,11.9,0.5,17.5,2.8c1.3,0.6,3.3,0.8,3.3,2.8
	c-0.1,1.9-1.2,3.6-3,4.4c-2.5,1.3-5.4,1.3-8.1,1.6c-7.3,0.5-14.6,0.4-21.9,1.2c-3.5,0.3-6.9,0.9-10.2,1.9c-0.7,0.2-1.6,0.4-1.6,1.1
	c0,1,1,1.1,1.7,1.2c4.9,1,9.8,1.3,14.8,1.9c5.4,0.6,10.8,1.5,16.2,2.7c12.8,3.1,13.3,19.6,6.7,26c-3.6,3.4-8.1,5.7-12.9,6.4
	c-9.8,2-20-0.3-28-6.3c-2.4-1.6-4.2-3.9-5.3-6.5c-1.5-4.1,0.1-8.2,4.2-10.5c3-1.6,6.3-2.4,9.7-2.2c6.8,0,13.5,1.4,19.7,4.1
	c1,0.5,2.2,0.9,2.1,2.2c0,1.3-1,1.9-2,2.4c-4.6,2.3-9.4,3.2-14.3,1.1c-2.8-1.4-5.7-2.5-8.7-3.2c-1.5-0.3-3-0.2-4.4,0.4
	c-1.2,0.4-2.1,1.5-2.2,2.7c0,1.1,0.7,2.2,1.8,2.6c2.1,1.2,4.4,1.9,6.8,2.1c8.3,0.5,16.4-0.4,23.9-4.2c0.6-0.3,1.2-0.7,1.8-1.1
	c1.4-0.9,3-1.8,2.9-3.8c-0.2-2-1.9-2.7-3.4-3.4c-4.7-2.1-9.7-2.7-14.7-3.2c-6.4-0.8-12.8-0.9-19.1-1.9c-6.5-1.1-8.8-5-6.8-11.3
	c1.1-3.3,3.4-6,6.4-7.7c5-3.2,10.7-4.4,16.4-5.4C370.1,249.6,373.7,249.3,377.3,249.3L377.3,249.3z M431.6,242.7
	c1.8,1.1,3.4,2.5,4.9,4.1c5.1,5.7,7.9,12.4,9.3,19.9c1.7,9,1.7,17.9-1.2,26.8c-0.5,1.4-1.2,2.7-2.2,3.8c-3.5,4.2-8.6,4.5-12.4,0.5
	s-6.5-8.8-9.1-13.6c-1.9-3.4-3.7-6.9-5.6-10.4c-0.3-0.5-0.5-1.3-1.2-1.1c-0.7,0.1-0.5,0.9-0.6,1.5c-0.5,4.2-0.7,8.5-0.8,12.8
	c0.1,4.2-0.3,8.4-1.1,12.5c-0.6,2.8-2.1,4.1-4.5,4.3c-2.4,0.1-4.6-1.4-5.3-3.7c-1.4-3.6-1.1-7.4-1.2-11.1c0.1-9.1,1.4-18.1,4-26.9
	c0.5-2,1.4-3.9,2.5-5.6c2.2-3.3,4.7-3.5,7.5-0.7c4.7,4.8,8.2,10.4,11.8,16c2.3,3.7,4.6,7.3,6.9,11c0.4,0.6,0.8,1.5,1.7,1.3
	s0.7-1.3,0.7-2c-0.2-5.8-1.6-11.5-2.9-17.1c-1.3-5.5-2.8-10.8-4.2-16.3c-0.5-1.3-0.6-2.8-0.4-4.2C428.5,242,429.7,241.4,431.6,242.7
	L431.6,242.7z M223.6,265.5c-4.2,0.3-8.5,0.6-12.7,1.4c-5.2,0.9-10.4,1.7-15.3,4c-3.4,1.6-3.7,3.3-1.3,6.2c0.5,0.6,1,1.1,1.6,1.7
	c4.9,5.1,10.7,8.8,16.8,12.3c3.8,2.1,7.8,3.9,11.9,5.2c0.1-0.1,0.1-0.2,0.1-0.3c0-9.9,0-19.7,0-29.6
	C224.9,265.4,224.4,265.4,223.6,265.5L223.6,265.5z M534.2,266.4l-8.7,10.6c-3.2,4.4-6.1,8.9-8.6,13.7c2.8-0.3,5.5-1,8-2.2
	c8.4-4,13.6-10.4,14.5-19.9c0.2-1.5,0.5-3.6-1.3-4.3C536.3,263.6,535.3,265.4,534.2,266.4L534.2,266.4z M345.7,201.3
	c3.9-0.1,7.6,1.5,10.1,4.5c0.5,0.6,1.2,0.9,2,1c7.1,1.6,10.5,7.6,8.1,14.6c-0.6,2-1.7,3.8-3,5.4c-6.5,7.4-14.2,12.9-23.9,15.1
	c-3.8,0.9-7.7,0.7-11.5-0.5c-1-0.3-1.5-0.2-1.9,0.8l-0.1,0.2c-0.8,1.5-1.6,3.2-3.6,3c-2-0.2-2.7-2-3.4-3.6c-0.4-0.7-0.5-1.5-0.5-2.2
	c0.3-2.8-0.9-4.9-2.3-7.1c-1.2-2-1.7-4.2-1.7-6.5c0-3.1,0.9-6.1,2.7-8.6C323.6,207.2,333.2,201.5,345.7,201.3z M353.4,213.7
	c-2,0.4-3.8,1.1-5.5,2.2c-4.2,2.7-8,5.9-11.4,9.5c-1.7,1.9-3.2,3.8-4.7,5.9c-0.6,0.8-0.5,1.1,0.5,1.1h3.5c6.9,0.1,13.6-2.2,18.9-6.6
	c2-1.4,3.6-3.4,4.4-5.8C360.4,216,357.5,212.8,353.4,213.7L353.4,213.7z M335.9,212.7c-5.4-0.2-13.5,6.1-14.6,11.1
	c-0.4,1.4-0.1,3,0.9,4.1C325.9,222.2,330.6,217.1,335.9,212.7z"/>
<radialGradient id="SVGID_1_" cx="28.0603" cy="93.3955" r="17.15" gradientTransform="matrix(19.25 0 0 19.25 47.7 -1574.9297)" gradientUnits="userSpaceOnUse">
	<stop  offset="0" style="stop-color:#01147B"/>
	<stop  offset="3.000000e-02" style="stop-color:#011098"/>
	<stop  offset="6.000000e-02" style="stop-color:#010ABD"/>
	<stop  offset="0.1" style="stop-color:#0006DA"/>
	<stop  offset="0.14" style="stop-color:#0003EE"/>
	<stop  offset="0.18" style="stop-color:#0001FB"/>
	<stop  offset="0.22" style="stop-color:#0000FF"/>
	<stop  offset="1" style="stop-color:#00FFFF;stop-opacity:0"/>
</radialGradient>
<path class="st1" d="M409.3,97.5c-5.3,0-10.5,0.3-15.8,1c-11.7,1.6-23.2,3.2-34.6,6.2c-11.6,3.1-22.9,7.3-33.7,12.5
	c-22.5,10.7-42.6,25.7-59.4,44.1c-6.7,7.5-12.9,15.4-18.6,23.7c-1.3,1.8-0.7,3.3,1.3,4.1c1.3,0.4,2.6,0.9,3.8,1.3
	c2.3,0.8,3.1,0.5,4.5-1.6c3.3-4.6,6.5-9.5,10.3-13.7c4.2-4.5,8.3-9.1,12.4-13.6c4.8-4.5,9.8-8.8,14.9-12.9
	c70.5-56,171-53.6,238.8,5.7c17.8,15.6,32.4,34.5,43,55.7c1.2,2.4,2.5,4.9,3.6,7.4c2.8,6.2,1.7,6.1,7.4,6.1c0.6,0,1.4,0,2.2,0
	c2,0,3.5-0.9,2.8-3.1c-3.9-11.2-10.2-22-16.6-32c-6.6-10.2-14-19.7-22.3-28.5l-0.5-0.5c-13.1-13.9-28.1-25.8-44.7-35.3
	c-6.6-3.9-13.5-7.4-20.6-10.2c-5.6-2.6-11.4-4.8-17.3-6.6c-12.3-4-25.1-6.8-38-8.2c-7.6-0.9-15.2-1.4-22.9-1.4L409.3,97.5z"/>
<path class="st0" d="M527.8,383.6c11.2,0,20.7,4.2,26.6,12.9h0.3v-10.8h14.4v76.8h-14.4v-11.9h-0.3c-5.4,9.2-15.1,13.9-26.1,13.9
	c-22.5,0-40.8-16.9-40.8-39.1C487.6,400.8,505.2,383.6,527.8,383.6z M298.5,383.6c21.2,0,41.2,16.6,40.9,41
	c-0.3,20.9-18.1,40.5-43.5,39.8c-21.5-0.7-39.7-19.1-39.5-40.6C256.8,400.7,275.1,383.6,298.5,383.6L298.5,383.6z M414.7,383.6
	c12.8,0,23.2,8.9,23.6,22.5h-14.4c-0.7-5.5-3.9-9.3-9.8-9.3c-5.5,0-9,3.8-9,8.2c0,6.5,6.7,8.5,14.3,10.8
	c10.8,3.3,20.8,9.8,20.8,24.1c0,14.8-10.8,24.5-25.8,24.5c-13.9,0-27.2-9.4-27.2-27.2h14.4c0.7,9.3,5.4,14,13,14
	c6.7,0,11.1-4.3,11.1-10.5c0-5.3-4-8.7-13-11.6c-18.9-6-22.1-14.1-22.1-22.9C390.6,392.6,402.1,383.6,414.7,383.6L414.7,383.6z
	 M175,359.9c8,0,14.4,6.5,14.4,14.4l0,0v19.5h0.3c4.6-6.8,11.9-10.3,21.5-10.3c18.3,0,32,11.6,32,32.7v46.2h-14.4v-41.7
	c0-16.5-6.4-24-19.1-24s-20.2,9.2-20.2,24.1v41.6H175V359.9z M370.2,359.9v25.8h12.6v13.2h-12.6v63.6c-8,0-14.4-6.5-14.4-14.4v-49.2
	h-6v-13.2h6v-25.8H370.2z M470.4,359.9v25.8H483v13.2h-12.6v63.6c-8,0-14.4-6.5-14.4-14.4v-49.2h-6v-13.2h6v-25.8H470.4z M621,383.6
	v14.8c-12.5,0.4-18.9,8-18.9,20.9v28.7c0,8-6.4,14.4-14.4,14.4c0,0,0,0,0,0v-76.8h13.5v6.9h0.3C604.9,387.5,610.9,384.2,621,383.6z
	 M528.2,396.8c-15.2,0-27.5,13.8-26.1,30c1.2,13.4,12.1,24.2,25.5,24.5c15.2,0.3,27.3-12.3,27.3-27
	C555,409.3,544.2,396.8,528.2,396.8z M297.8,396.8c-15.1,0.2-27.1,12.6-26.9,27.7c0,2.1,0.3,4.2,0.8,6.2c3,12.1,14.1,20.9,26.6,20.6
	c15-0.4,26.9-12.9,26.5-28C324.5,408.6,312.5,396.9,297.8,396.8L297.8,396.8z"/>
<rect x="148" y="31" class="st2" width="500" height="500"/>
</svg>
